# xmcd
#
# Track frame offsets:
#	182
#	14055
#	36432
#	68870
#	85062
#	113887
#	138552
#
# Disc length: 2252 seconds
# Revision: 5
# Processed by: cddbd v1.5.2PL0 Copyright (c) Steve Scherf et al.
# Submitted via: dBpowerAMP V12.0
#
DISCID=6108ca07
DTITLE=Marshall Tucker Band - Carolina Dreams
DYEAR=1977
DGENRE=Country
TTITLE0=Fly Like An Eagle
TTITLE1=Heard It In A Love Song
TTITLE2=I Should Have Never Started Lovin' You
TTITLE3=Life In A Song
TTITLE4=Desert Skies
TTITLE5=Never Trust A Stranger
TTITLE6=Tell It To The Devil
EXTD=
EXTT0=
EXTT1=
EXTT2=
EXTT3=
EXTT4=
EXTT5=
EXTT6=
PLAYORDER=
